<?xml version="1.0" encoding="UTF-8" standalone="no"?>
<svg
   xmlns:dc="http://purl.org/dc/elements/1.1/"
   xmlns:cc="http://creativecommons.org/ns#"
   xmlns:rdf="http://www.w3.org/1999/02/22-rdf-syntax-ns#"
   xmlns:svg="http://www.w3.org/2000/svg"
   xmlns="http://www.w3.org/2000/svg"
   xmlns:sodipodi="http://sodipodi.sourceforge.net/DTD/sodipodi-0.dtd"
   xmlns:inkscape="http://www.inkscape.org/namespaces/inkscape"
   version="1.1"
   id="svg2"
   xml:space="preserve"
   width="960"
   height="960"
   viewBox="0 0 960 960"
   sodipodi:docname="Game Design-1.ps"><metadata
     id="metadata8"><rdf:RDF><cc:Work
         rdf:about=""><dc:format>image/svg+xml</dc:format><dc:type
           rdf:resource="http://purl.org/dc/dcmitype/StillImage" /></cc:Work></rdf:RDF></metadata><defs
     id="defs6" /><sodipodi:namedview
     pagecolor="#ffffff"
     bordercolor="#666666"
     borderopacity="1"
     objecttolerance="10"
     gridtolerance="10"
     guidetolerance="10"
     inkscape:pageopacity="0"
     inkscape:pageshadow="2"
     inkscape:window-width="640"
     inkscape:window-height="480"
     id="namedview4" /><g
     id="g10"
     inkscape:groupmode="layer"
     inkscape:label="ink_ext_XXXXXX"
     transform="matrix(1.3333333,0,0,-1.3333333,0,960)"><g
       id="g12"
       transform="scale(0.1)"><path
         d="m 1288.26,5525.63 -385.209,385.21 385.209,385.21 385.21,-385.21 z"
         style="fill:#ede4d6;fill-opacity:1;fill-rule:nonzero;stroke:none"
         id="path14" /><path
         d="m 2058.69,5525.63 -385.21,385.21 385.21,385.21 385.21,-385.21 z"
         style="fill:#ede4d6;fill-opacity:1;fill-rule:nonzero;stroke:none"
         id="path16" /><path
         d="m 1288.26,4755.2 -385.209,385.21 385.209,385.22 385.21,-385.22 z"
         style="fill:#ede4d6;fill-opacity:1;fill-rule:nonzero;stroke:none"
         id="path18" /><path
         d="m 2829.12,5525.63 -385.21,385.21 385.21,385.21 385.21,-385.21 z"
         style="fill:#ede4d6;fill-opacity:1;fill-rule:nonzero;stroke:none"
         id="path20" /><path
         d="m 1288.26,3984.77 -385.209,385.21 385.209,385.22 385.21,-385.22 z"
         style="fill:#ede4d6;fill-opacity:1;fill-rule:nonzero;stroke:none"
         id="path22" /><path
         d="m 4369.98,5525.63 -385.21,385.21 385.21,385.21 385.21,-385.21 z"
         style="fill:#ede4d6;fill-opacity:1;fill-rule:nonzero;stroke:none"
         id="path24" /><path
         d="m 1288.26,2443.91 -385.209,385.21 385.209,385.22 385.21,-385.22 z"
         style="fill:#ede4d6;fill-opacity:1;fill-rule:nonzero;stroke:none"
         id="path26" /><path
         d="m 5140.41,5525.63 -385.21,385.21 385.21,385.21 385.21,-385.21 z"
         style="fill:#ede4d6;fill-opacity:1;fill-rule:nonzero;stroke:none"
         id="path28" /><path
         d="m 1288.26,1673.48 -385.209,385.21 385.209,385.22 385.21,-385.22 z"
         style="fill:#ede4d6;fill-opacity:1;fill-rule:nonzero;stroke:none"
         id="path30" /><path
         d="m 5910.84,4755.2 -385.21,385.21 385.21,385.22 385.21,-385.22 z"
         style="fill:#ede4d6;fill-opacity:1;fill-rule:nonzero;stroke:none"
         id="path32" /><path
         d="m 2058.69,903.047 -385.21,385.213 385.21,385.22 385.21,-385.22 z"
         style="fill:#ede4d6;fill-opacity:1;fill-rule:nonzero;stroke:none"
         id="path34" /><path
         d="m 5910.84,3984.77 -385.21,385.21 385.21,385.22 385.21,-385.22 z"
         style="fill:#ede4d6;fill-opacity:1;fill-rule:nonzero;stroke:none"
         id="path36" /><path
         d="m 2829.12,903.047 -385.21,385.213 385.21,385.22 385.21,-385.22 z"
         style="fill:#ede4d6;fill-opacity:1;fill-rule:nonzero;stroke:none"
         id="path38" /><path
         d="m 3599.55,5525.63 -385.21,385.21 385.21,385.21 385.21,-385.21 z"
         style="fill:#ede4d6;fill-opacity:1;fill-rule:nonzero;stroke:none"
         id="path40" /><path
         d="m 1288.26,3214.34 -385.209,385.21 385.209,385.22 385.21,-385.22 z"
         style="fill:#ede4d6;fill-opacity:1;fill-rule:nonzero;stroke:none"
         id="path42" /><path
         d="m 4369.98,4755.2 -385.21,385.21 385.21,385.22 385.21,-385.22 z"
         style="fill:#ede4d6;fill-opacity:1;fill-rule:nonzero;stroke:none"
         id="path44" /><path
         d="m 2058.69,2443.91 -385.21,385.21 385.21,385.22 385.21,-385.22 z"
         style="fill:#ede4d6;fill-opacity:1;fill-rule:nonzero;stroke:none"
         id="path46" /><path
         d="m 5140.41,3984.77 -385.21,385.21 385.21,385.22 385.21,-385.22 z"
         style="fill:#ede4d6;fill-opacity:1;fill-rule:nonzero;stroke:none"
         id="path48" /><path
         d="m 2829.12,1673.48 -385.21,385.21 385.21,385.22 385.21,-385.22 z"
         style="fill:#ede4d6;fill-opacity:1;fill-rule:nonzero;stroke:none"
         id="path50" /><path
         d="m 5910.84,3214.34 -385.21,385.21 385.21,385.22 385.21,-385.22 z"
         style="fill:#ede4d6;fill-opacity:1;fill-rule:nonzero;stroke:none"
         id="path52" /><path
         d="m 3599.55,903.047 -385.21,385.213 385.21,385.22 385.21,-385.22 z"
         style="fill:#ede4d6;fill-opacity:1;fill-rule:nonzero;stroke:none"
         id="path54" /><path
         d="m 3599.55,4755.2 -385.21,385.21 385.21,385.22 385.21,-385.22 z"
         style="fill:#ede4d6;fill-opacity:1;fill-rule:nonzero;stroke:none"
         id="path56" /><path
         d="m 2058.69,3214.34 -385.21,385.21 385.21,385.22 385.21,-385.22 z"
         style="fill:#ede4d6;fill-opacity:1;fill-rule:nonzero;stroke:none"
         id="path58" /><path
         d="m 5140.41,3214.34 -385.21,385.21 385.21,385.22 385.21,-385.22 z"
         style="fill:#ede4d6;fill-opacity:1;fill-rule:nonzero;stroke:none"
         id="path60" /><path
         d="m 3599.55,1673.48 -385.21,385.21 385.21,385.22 385.21,-385.22 z"
         style="fill:#ede4d6;fill-opacity:1;fill-rule:nonzero;stroke:none"
         id="path62" /><path
         d="m 5910.84,2443.91 -385.21,385.21 385.21,385.22 385.21,-385.22 z"
         style="fill:#ede4d6;fill-opacity:1;fill-rule:nonzero;stroke:none"
         id="path64" /><path
         d="m 4369.98,903.047 -385.21,385.213 385.21,385.22 385.21,-385.22 z"
         style="fill:#ede4d6;fill-opacity:1;fill-rule:nonzero;stroke:none"
         id="path66" /><path
         d="m 2829.12,4755.2 -385.21,385.21 385.21,385.22 385.21,-385.22 z"
         style="fill:#ede4d6;fill-opacity:1;fill-rule:nonzero;stroke:none"
         id="path68" /><path
         d="m 2058.69,3984.77 -385.21,385.21 385.21,385.22 385.21,-385.22 z"
         style="fill:#ede4d6;fill-opacity:1;fill-rule:nonzero;stroke:none"
         id="path70" /><path
         d="m 3599.55,3984.77 -385.21,385.21 385.21,385.22 385.21,-385.22 z"
         style="fill:#ede4d6;fill-opacity:1;fill-rule:nonzero;stroke:none"
         id="path72" /><path
         d="m 2829.12,3214.34 -385.21,385.21 385.21,385.22 385.21,-385.22 z"
         style="fill:#ede4d6;fill-opacity:1;fill-rule:nonzero;stroke:none"
         id="path74" /><path
         d="m 4369.98,3214.34 -385.21,385.21 385.21,385.22 385.21,-385.22 z"
         style="fill:#ede4d6;fill-opacity:1;fill-rule:nonzero;stroke:none"
         id="path76" /><path
         d="m 3599.55,2443.91 -385.21,385.21 385.21,385.22 385.21,-385.22 z"
         style="fill:#ede4d6;fill-opacity:1;fill-rule:nonzero;stroke:none"
         id="path78" /><path
         d="m 5140.41,2443.91 -385.21,385.21 385.21,385.22 385.21,-385.22 z"
         style="fill:#ede4d6;fill-opacity:1;fill-rule:nonzero;stroke:none"
         id="path80" /><path
         d="m 4369.98,1673.48 -385.21,385.21 385.21,385.22 385.21,-385.22 z"
         style="fill:#ede4d6;fill-opacity:1;fill-rule:nonzero;stroke:none"
         id="path82" /><path
         d="m 5910.84,1673.48 -385.21,385.21 385.21,385.22 385.21,-385.22 z"
         style="fill:#ede4d6;fill-opacity:1;fill-rule:nonzero;stroke:none"
         id="path84" /><path
         d="m 5140.41,903.047 -385.21,385.213 385.21,385.22 385.21,-385.22 z"
         style="fill:#ede4d6;fill-opacity:1;fill-rule:nonzero;stroke:none"
         id="path86" /><path
         d="m 2058.69,4755.2 -385.21,385.21 385.21,385.22 385.21,-385.22 z"
         style="fill:#ede4d6;fill-opacity:1;fill-rule:nonzero;stroke:none"
         id="path88" /><path
         d="m 2829.12,3984.77 -385.21,385.21 385.21,385.22 385.21,-385.22 z"
         style="fill:#ede4d6;fill-opacity:1;fill-rule:nonzero;stroke:none"
         id="path90" /><path
         d="m 4369.98,2443.91 -385.21,385.21 385.21,385.22 385.21,-385.22 z"
         style="fill:#ede4d6;fill-opacity:1;fill-rule:nonzero;stroke:none"
         id="path92" /><path
         d="m 5140.41,1673.48 -385.21,385.21 385.21,385.22 385.21,-385.22 z"
         style="fill:#ede4d6;fill-opacity:1;fill-rule:nonzero;stroke:none"
         id="path94" /><path
         d="m 5910.84,903.047 -385.21,385.213 385.21,385.22 385.21,-385.22 z"
         style="fill:#ede4d6;fill-opacity:1;fill-rule:nonzero;stroke:none"
         id="path96" /><path
         d="m 5525.63,5910.84 385.21,385.21 385.21,-385.21 -385.21,-385.21 z"
         style="fill:#ede4d6;fill-opacity:1;fill-rule:nonzero;stroke:none"
         id="path98" /><path
         d="m 4755.2,5140.41 385.21,385.21 385.22,-385.21 -385.22,-385.21 z"
         style="fill:#ede4d6;fill-opacity:1;fill-rule:nonzero;stroke:none"
         id="path100" /><path
         d="m 3984.77,4369.98 385.21,385.21 385.22,-385.21 -385.22,-385.21 z"
         style="fill:#ede4d6;fill-opacity:1;fill-rule:nonzero;stroke:none"
         id="path102" /><path
         d="m 2443.91,2829.12 385.21,385.21 385.22,-385.21 -385.22,-385.21 z"
         style="fill:#ede4d6;fill-opacity:1;fill-rule:nonzero;stroke:none"
         id="path104" /><path
         d="m 1673.48,2058.69 385.21,385.21 385.22,-385.21 -385.22,-385.21 z"
         style="fill:#ede4d6;fill-opacity:1;fill-rule:nonzero;stroke:none"
         id="path106" /><path
         d="m 903.047,1288.26 385.213,385.21 385.22,-385.21 -385.22,-385.209 z"
         style="fill:#ede4d6;fill-opacity:1;fill-rule:nonzero;stroke:none"
         id="path108" /><path
         d="m 3984.77,5140.41 -385.22,385.21 385.22,385.22 385.21,-385.22 z"
         style="fill:#b0cc79;fill-opacity:1;fill-rule:nonzero;stroke:none"
         id="path110" /><path
         d="m 3984.77,5140.41 -385.22,385.21 385.22,385.22 385.21,-385.22 z"
         style="fill:none;stroke:#627230;stroke-width:10;stroke-linecap:butt;stroke-linejoin:miter;stroke-miterlimit:10;stroke-dasharray:none;stroke-opacity:1"
         id="path112" /><path
         d="m 1673.48,2829.12 -385.21,385.21 385.21,385.22 385.21,-385.22 z"
         style="fill:#b0cc79;fill-opacity:1;fill-rule:nonzero;stroke:none"
         id="path114" /><path
         d="m 1673.48,2829.12 -385.21,385.21 385.21,385.22 385.21,-385.22 z"
         style="fill:none;stroke:#627230;stroke-width:10;stroke-linecap:butt;stroke-linejoin:miter;stroke-miterlimit:10;stroke-dasharray:none;stroke-opacity:1"
         id="path116" /><path
         d="m 5525.63,3599.55 -385.22,385.21 385.22,385.22 385.21,-385.22 z"
         style="fill:#b0cc79;fill-opacity:1;fill-rule:nonzero;stroke:none"
         id="path118" /><path
         d="m 5525.63,3599.55 -385.22,385.21 385.22,385.22 385.21,-385.22 z"
         style="fill:none;stroke:#627230;stroke-width:10;stroke-linecap:butt;stroke-linejoin:miter;stroke-miterlimit:10;stroke-dasharray:none;stroke-opacity:1"
         id="path120" /><path
         d="m 3214.34,1288.26 -385.21,385.21 385.21,385.22 385.21,-385.22 z"
         style="fill:#b0cc79;fill-opacity:1;fill-rule:nonzero;stroke:none"
         id="path122" /><path
         d="m 3214.34,1288.26 -385.21,385.21 385.21,385.22 385.21,-385.22 z"
         style="fill:none;stroke:#627230;stroke-width:10;stroke-linecap:butt;stroke-linejoin:miter;stroke-miterlimit:10;stroke-dasharray:none;stroke-opacity:1"
         id="path124" /><path
         d="m 3214.34,5140.41 -385.21,385.21 385.21,385.22 385.21,-385.22 z"
         style="fill:#b0cc79;fill-opacity:1;fill-rule:nonzero;stroke:none"
         id="path126" /><path
         d="m 3214.34,5140.41 -385.21,385.21 385.21,385.22 385.21,-385.22 z"
         style="fill:none;stroke:#627230;stroke-width:10;stroke-linecap:butt;stroke-linejoin:miter;stroke-miterlimit:10;stroke-dasharray:none;stroke-opacity:1"
         id="path128" /><path
         d="m 1673.48,3599.55 -385.21,385.21 385.21,385.22 385.21,-385.22 z"
         style="fill:#b0cc79;fill-opacity:1;fill-rule:nonzero;stroke:none"
         id="path130" /><path
         d="m 1673.48,3599.55 -385.21,385.21 385.21,385.22 385.21,-385.22 z"
         style="fill:none;stroke:#627230;stroke-width:10;stroke-linecap:butt;stroke-linejoin:miter;stroke-miterlimit:10;stroke-dasharray:none;stroke-opacity:1"
         id="path132" /><path
         d="m 3984.77,4369.98 -385.22,385.21 385.22,385.22 385.21,-385.22 z"
         style="fill:#b0cc79;fill-opacity:1;fill-rule:nonzero;stroke:none"
         id="path134" /><path
         d="m 3984.77,4369.98 -385.22,385.21 385.22,385.22 385.21,-385.22 z"
         style="fill:none;stroke:#627230;stroke-width:10;stroke-linecap:butt;stroke-linejoin:miter;stroke-miterlimit:10;stroke-dasharray:none;stroke-opacity:1"
         id="path136" /><path
         d="m 2443.91,2829.12 -385.21,385.21 385.21,385.22 385.21,-385.22 z"
         style="fill:#b0cc79;fill-opacity:1;fill-rule:nonzero;stroke:none"
         id="path138" /><path
         d="m 2443.91,2829.12 -385.21,385.21 385.21,385.22 385.21,-385.22 z"
         style="fill:none;stroke:#627230;stroke-width:10;stroke-linecap:butt;stroke-linejoin:miter;stroke-miterlimit:10;stroke-dasharray:none;stroke-opacity:1"
         id="path140" /><path
         d="m 4755.2,3599.55 -385.22,385.21 385.22,385.22 385.21,-385.22 z"
         style="fill:#b0cc79;fill-opacity:1;fill-rule:nonzero;stroke:none"
         id="path142" /><path
         d="m 4755.2,3599.55 -385.22,385.21 385.22,385.22 385.21,-385.22 z"
         style="fill:none;stroke:#627230;stroke-width:10;stroke-linecap:butt;stroke-linejoin:miter;stroke-miterlimit:10;stroke-dasharray:none;stroke-opacity:1"
         id="path144" /><path
         d="m 3214.34,2058.69 -385.21,385.21 385.21,385.22 385.21,-385.22 z"
         style="fill:#b0cc79;fill-opacity:1;fill-rule:nonzero;stroke:none"
         id="path146" /><path
         d="m 3214.34,2058.69 -385.21,385.21 385.21,385.22 385.21,-385.22 z"
         style="fill:none;stroke:#627230;stroke-width:10;stroke-linecap:butt;stroke-linejoin:miter;stroke-miterlimit:10;stroke-dasharray:none;stroke-opacity:1"
         id="path148" /><path
         d="m 5525.63,2829.12 -385.22,385.21 385.22,385.22 385.21,-385.22 z"
         style="fill:#b0cc79;fill-opacity:1;fill-rule:nonzero;stroke:none"
         id="path150" /><path
         d="m 5525.63,2829.12 -385.22,385.21 385.22,385.22 385.21,-385.22 z"
         style="fill:none;stroke:#627230;stroke-width:10;stroke-linecap:butt;stroke-linejoin:miter;stroke-miterlimit:10;stroke-dasharray:none;stroke-opacity:1"
         id="path152" /><path
         d="m 3984.77,1288.26 -385.22,385.21 385.22,385.22 385.21,-385.22 z"
         style="fill:#b0cc79;fill-opacity:1;fill-rule:nonzero;stroke:none"
         id="path154" /><path
         d="m 3984.77,1288.26 -385.22,385.21 385.22,385.22 385.21,-385.22 z"
         style="fill:none;stroke:#627230;stroke-width:10;stroke-linecap:butt;stroke-linejoin:miter;stroke-miterlimit:10;stroke-dasharray:none;stroke-opacity:1"
         id="path156" /><path
         d="m 3214.34,4369.98 -385.21,385.21 385.21,385.22 385.21,-385.22 z"
         style="fill:#b0cc79;fill-opacity:1;fill-rule:nonzero;stroke:none"
         id="path158" /><path
         d="m 3214.34,4369.98 -385.21,385.21 385.21,385.22 385.21,-385.22 z"
         style="fill:none;stroke:#627230;stroke-width:10;stroke-linecap:butt;stroke-linejoin:miter;stroke-miterlimit:10;stroke-dasharray:none;stroke-opacity:1"
         id="path160" /><path
         d="m 2443.91,3599.55 -385.21,385.21 385.21,385.22 385.21,-385.22 z"
         style="fill:#b0cc79;fill-opacity:1;fill-rule:nonzero;stroke:none"
         id="path162" /><path
         d="m 2443.91,3599.55 -385.21,385.21 385.21,385.22 385.21,-385.22 z"
         style="fill:none;stroke:#627230;stroke-width:10;stroke-linecap:butt;stroke-linejoin:miter;stroke-miterlimit:10;stroke-dasharray:none;stroke-opacity:1"
         id="path164" /><path
         d="m 4755.2,2829.12 -385.22,385.21 385.22,385.22 385.21,-385.22 z"
         style="fill:#b0cc79;fill-opacity:1;fill-rule:nonzero;stroke:none"
         id="path166" /><path
         d="m 4755.2,2829.12 -385.22,385.21 385.22,385.22 385.21,-385.22 z"
         style="fill:none;stroke:#627230;stroke-width:10;stroke-linecap:butt;stroke-linejoin:miter;stroke-miterlimit:10;stroke-dasharray:none;stroke-opacity:1"
         id="path168" /><path
         d="m 3984.77,2058.69 -385.22,385.21 385.22,385.22 385.21,-385.22 z"
         style="fill:#b0cc79;fill-opacity:1;fill-rule:nonzero;stroke:none"
         id="path170" /><path
         d="m 3984.77,2058.69 -385.22,385.21 385.22,385.22 385.21,-385.22 z"
         style="fill:none;stroke:#627230;stroke-width:10;stroke-linecap:butt;stroke-linejoin:miter;stroke-miterlimit:10;stroke-dasharray:none;stroke-opacity:1"
         id="path172" /><path
         d="m 2443.91,4369.98 -385.21,385.21 385.21,385.22 385.21,-385.22 z"
         style="fill:#b0cc79;fill-opacity:1;fill-rule:nonzero;stroke:none"
         id="path174" /><path
         d="m 2443.91,4369.98 -385.21,385.21 385.21,385.22 385.21,-385.22 z"
         style="fill:none;stroke:#627230;stroke-width:10;stroke-linecap:butt;stroke-linejoin:miter;stroke-miterlimit:10;stroke-dasharray:none;stroke-opacity:1"
         id="path176" /><path
         d="m 3214.34,3599.55 -385.21,385.21 385.21,385.22 385.21,-385.22 z"
         style="fill:#b0cc79;fill-opacity:1;fill-rule:nonzero;stroke:none"
         id="path178" /><path
         d="m 3214.34,3599.55 -385.21,385.21 385.21,385.22 385.21,-385.22 z"
         style="fill:none;stroke:#627230;stroke-width:10;stroke-linecap:butt;stroke-linejoin:miter;stroke-miterlimit:10;stroke-dasharray:none;stroke-opacity:1"
         id="path180" /><path
         d="m 3984.77,2829.12 -385.22,385.21 385.22,385.22 385.21,-385.22 z"
         style="fill:#b0cc79;fill-opacity:1;fill-rule:nonzero;stroke:none"
         id="path182" /><path
         d="m 3984.77,2829.12 -385.22,385.21 385.22,385.22 385.21,-385.22 z"
         style="fill:none;stroke:#627230;stroke-width:10;stroke-linecap:butt;stroke-linejoin:miter;stroke-miterlimit:10;stroke-dasharray:none;stroke-opacity:1"
         id="path184" /><path
         d="m 4755.2,2058.69 -385.22,385.21 385.22,385.22 385.21,-385.22 z"
         style="fill:#b0cc79;fill-opacity:1;fill-rule:nonzero;stroke:none"
         id="path186" /><path
         d="m 4755.2,2058.69 -385.22,385.21 385.22,385.22 385.21,-385.22 z"
         style="fill:none;stroke:#627230;stroke-width:10;stroke-linecap:butt;stroke-linejoin:miter;stroke-miterlimit:10;stroke-dasharray:none;stroke-opacity:1"
         id="path188" /><path
         d="m 4369.98,4755.2 385.21,385.21 385.22,-385.21 -385.22,-385.22 z"
         style="fill:#b0cc79;fill-opacity:1;fill-rule:nonzero;stroke:none"
         id="path190" /><path
         d="m 4369.98,4755.2 385.21,385.21 385.22,-385.21 -385.22,-385.22 z"
         style="fill:none;stroke:#627230;stroke-width:10;stroke-linecap:butt;stroke-linejoin:miter;stroke-miterlimit:10;stroke-dasharray:none;stroke-opacity:1"
         id="path192" /><path
         d="m 3599.55,3984.77 385.21,385.21 385.22,-385.21 -385.22,-385.22 z"
         style="fill:#b0cc79;fill-opacity:1;fill-rule:nonzero;stroke:none"
         id="path194" /><path
         d="m 3599.55,3984.77 385.21,385.21 385.22,-385.21 -385.22,-385.22 z"
         style="fill:none;stroke:#627230;stroke-width:10;stroke-linecap:butt;stroke-linejoin:miter;stroke-miterlimit:10;stroke-dasharray:none;stroke-opacity:1"
         id="path196" /><path
         d="m 2829.12,3214.34 385.21,385.21 385.22,-385.21 -385.22,-385.21 z"
         style="fill:#b0cc79;fill-opacity:1;fill-rule:nonzero;stroke:none"
         id="path198" /><path
         d="m 2829.12,3214.34 385.21,385.21 385.22,-385.21 -385.22,-385.21 z"
         style="fill:none;stroke:#627230;stroke-width:10;stroke-linecap:butt;stroke-linejoin:miter;stroke-miterlimit:10;stroke-dasharray:none;stroke-opacity:1"
         id="path200" /><path
         d="M 2058.69,2443.91 2443.9,2829.12 2829.12,2443.91 2443.9,2058.7 Z"
         style="fill:#b0cc79;fill-opacity:1;fill-rule:nonzero;stroke:none"
         id="path202" /><path
         d="M 2058.69,2443.91 2443.9,2829.12 2829.12,2443.91 2443.9,2058.7 Z"
         style="fill:none;stroke:#627230;stroke-width:10;stroke-linecap:butt;stroke-linejoin:miter;stroke-miterlimit:10;stroke-dasharray:none;stroke-opacity:1"
         id="path204" /><path
         d="m 6296.05,2829.12 -385.21,385.21 385.21,385.22 385.22,-385.22 z"
         style="fill:#b0cc79;fill-opacity:1;fill-rule:nonzero;stroke:none"
         id="path206" /><path
         d="m 6296.05,2829.12 -385.21,385.21 385.21,385.22 385.22,-385.22 z"
         style="fill:none;stroke:#627230;stroke-width:10;stroke-linecap:butt;stroke-linejoin:miter;stroke-miterlimit:10;stroke-dasharray:none;stroke-opacity:1"
         id="path208" /><path
         d="m 3984.77,517.832 -385.22,385.211 385.22,385.217 385.21,-385.217 z"
         style="fill:#b0cc79;fill-opacity:1;fill-rule:nonzero;stroke:none"
         id="path210" /><path
         d="m 3984.77,517.832 -385.22,385.211 385.22,385.217 385.21,-385.217 z"
         style="fill:none;stroke:#627230;stroke-width:10;stroke-linecap:butt;stroke-linejoin:miter;stroke-miterlimit:10;stroke-dasharray:none;stroke-opacity:1"
         id="path212" /><path
         d="m 6296.05,2058.69 -385.21,385.21 385.21,385.22 385.22,-385.22 z"
         style="fill:#b0cc79;fill-opacity:1;fill-rule:nonzero;stroke:none"
         id="path214" /><path
         d="m 6296.05,2058.69 -385.21,385.21 385.21,385.22 385.22,-385.22 z"
         style="fill:none;stroke:#627230;stroke-width:10;stroke-linecap:butt;stroke-linejoin:miter;stroke-miterlimit:10;stroke-dasharray:none;stroke-opacity:1"
         id="path216" /><path
         d="M 4755.2,517.832 4369.98,903.043 4755.2,1288.26 5140.41,903.043 Z"
         style="fill:#b0cc79;fill-opacity:1;fill-rule:nonzero;stroke:none"
         id="path218" /><path
         d="M 4755.2,517.832 4369.98,903.043 4755.2,1288.26 5140.41,903.043 Z"
         style="fill:none;stroke:#627230;stroke-width:10;stroke-linecap:butt;stroke-linejoin:miter;stroke-miterlimit:10;stroke-dasharray:none;stroke-opacity:1"
         id="path220" /><path
         d="m 5525.63,2058.69 -385.22,385.21 385.22,385.22 385.21,-385.22 z"
         style="fill:#b0cc79;fill-opacity:1;fill-rule:nonzero;stroke:none"
         id="path222" /><path
         d="m 5525.63,2058.69 -385.22,385.21 385.22,385.22 385.21,-385.22 z"
         style="fill:none;stroke:#627230;stroke-width:10;stroke-linecap:butt;stroke-linejoin:miter;stroke-miterlimit:10;stroke-dasharray:none;stroke-opacity:1"
         id="path224" /><path
         d="m 4755.2,1288.26 -385.22,385.21 385.22,385.22 385.21,-385.22 z"
         style="fill:#b0cc79;fill-opacity:1;fill-rule:nonzero;stroke:none"
         id="path226" /><path
         d="m 4755.2,1288.26 -385.22,385.21 385.22,385.22 385.21,-385.22 z"
         style="fill:none;stroke:#627230;stroke-width:10;stroke-linecap:butt;stroke-linejoin:miter;stroke-miterlimit:10;stroke-dasharray:none;stroke-opacity:1"
         id="path228" /><path
         d="m 6296.05,1288.26 -385.21,385.21 385.21,385.22 385.22,-385.22 z"
         style="fill:#b0cc79;fill-opacity:1;fill-rule:nonzero;stroke:none"
         id="path230" /><path
         d="m 6296.05,1288.26 -385.21,385.21 385.21,385.22 385.22,-385.22 z"
         style="fill:none;stroke:#627230;stroke-width:10;stroke-linecap:butt;stroke-linejoin:miter;stroke-miterlimit:10;stroke-dasharray:none;stroke-opacity:1"
         id="path232" /><path
         d="m 5525.63,517.832 -385.22,385.211 385.22,385.217 385.21,-385.217 z"
         style="fill:#b0cc79;fill-opacity:1;fill-rule:nonzero;stroke:none"
         id="path234" /><path
         d="m 5525.63,517.832 -385.22,385.211 385.22,385.217 385.21,-385.217 z"
         style="fill:none;stroke:#627230;stroke-width:10;stroke-linecap:butt;stroke-linejoin:miter;stroke-miterlimit:10;stroke-dasharray:none;stroke-opacity:1"
         id="path236" /><path
         d="m 5525.63,1288.26 -385.22,385.21 385.22,385.22 385.21,-385.22 z"
         style="fill:#b0cc79;fill-opacity:1;fill-rule:nonzero;stroke:none"
         id="path238" /><path
         d="m 5525.63,1288.26 -385.22,385.21 385.22,385.22 385.21,-385.22 z"
         style="fill:none;stroke:#627230;stroke-width:10;stroke-linecap:butt;stroke-linejoin:miter;stroke-miterlimit:10;stroke-dasharray:none;stroke-opacity:1"
         id="path240" /><path
         d="m 6296.05,517.832 -385.21,385.211 385.21,385.217 385.22,-385.217 z"
         style="fill:#b0cc79;fill-opacity:1;fill-rule:nonzero;stroke:none"
         id="path242" /><path
         d="m 6296.05,517.832 -385.21,385.211 385.21,385.217 385.22,-385.217 z"
         style="fill:none;stroke:#627230;stroke-width:10;stroke-linecap:butt;stroke-linejoin:miter;stroke-miterlimit:10;stroke-dasharray:none;stroke-opacity:1"
         id="path244" /><path
         d="m 3984.77,5910.84 -385.22,385.21 385.22,385.22 385.21,-385.22 z"
         style="fill:#b0cc79;fill-opacity:1;fill-rule:nonzero;stroke:none"
         id="path246" /><path
         d="m 3984.77,5910.84 -385.22,385.21 385.22,385.22 385.21,-385.22 z"
         style="fill:none;stroke:#627230;stroke-width:10;stroke-linecap:butt;stroke-linejoin:miter;stroke-miterlimit:10;stroke-dasharray:none;stroke-opacity:1"
         id="path248" /><path
         d="m 4755.2,5910.84 -385.22,385.21 385.22,385.22 385.21,-385.22 z"
         style="fill:#b0cc79;fill-opacity:1;fill-rule:nonzero;stroke:none"
         id="path250" /><path
         d="m 4755.2,5910.84 -385.22,385.21 385.22,385.22 385.21,-385.22 z"
         style="fill:none;stroke:#627230;stroke-width:10;stroke-linecap:butt;stroke-linejoin:miter;stroke-miterlimit:10;stroke-dasharray:none;stroke-opacity:1"
         id="path252" /><path
         d="m 5525.63,5910.84 -385.22,385.21 385.22,385.22 385.21,-385.22 z"
         style="fill:#b0cc79;fill-opacity:1;fill-rule:nonzero;stroke:none"
         id="path254" /><path
         d="m 5525.63,5910.84 -385.22,385.21 385.22,385.22 385.21,-385.22 z"
         style="fill:none;stroke:#627230;stroke-width:10;stroke-linecap:butt;stroke-linejoin:miter;stroke-miterlimit:10;stroke-dasharray:none;stroke-opacity:1"
         id="path256" /><path
         d="m 6296.05,5140.41 -385.21,385.21 385.21,385.22 385.22,-385.22 z"
         style="fill:#b0cc79;fill-opacity:1;fill-rule:nonzero;stroke:none"
         id="path258" /><path
         d="m 6296.05,5140.41 -385.21,385.21 385.21,385.22 385.22,-385.22 z"
         style="fill:none;stroke:#627230;stroke-width:10;stroke-linecap:butt;stroke-linejoin:miter;stroke-miterlimit:10;stroke-dasharray:none;stroke-opacity:1"
         id="path260" /><path
         d="m 6296.05,4369.98 -385.21,385.21 385.21,385.22 385.22,-385.22 z"
         style="fill:#b0cc79;fill-opacity:1;fill-rule:nonzero;stroke:none"
         id="path262" /><path
         d="m 6296.05,4369.98 -385.21,385.21 385.21,385.22 385.22,-385.22 z"
         style="fill:none;stroke:#627230;stroke-width:10;stroke-linecap:butt;stroke-linejoin:miter;stroke-miterlimit:10;stroke-dasharray:none;stroke-opacity:1"
         id="path264" /><path
         d="m 4755.2,5140.41 -385.22,385.21 385.22,385.22 385.21,-385.22 z"
         style="fill:#b0cc79;fill-opacity:1;fill-rule:nonzero;stroke:none"
         id="path266" /><path
         d="m 4755.2,5140.41 -385.22,385.21 385.22,385.22 385.21,-385.22 z"
         style="fill:none;stroke:#627230;stroke-width:10;stroke-linecap:butt;stroke-linejoin:miter;stroke-miterlimit:10;stroke-dasharray:none;stroke-opacity:1"
         id="path268" /><path
         d="m 5525.63,4369.98 -385.22,385.21 385.22,385.22 385.21,-385.22 z"
         style="fill:#b0cc79;fill-opacity:1;fill-rule:nonzero;stroke:none"
         id="path270" /><path
         d="m 5525.63,4369.98 -385.22,385.21 385.22,385.22 385.21,-385.22 z"
         style="fill:none;stroke:#627230;stroke-width:10;stroke-linecap:butt;stroke-linejoin:miter;stroke-miterlimit:10;stroke-dasharray:none;stroke-opacity:1"
         id="path272" /><path
         d="m 6296.05,3599.55 -385.21,385.21 385.21,385.22 385.22,-385.22 z"
         style="fill:#b0cc79;fill-opacity:1;fill-rule:nonzero;stroke:none"
         id="path274" /><path
         d="m 6296.05,3599.55 -385.21,385.21 385.21,385.22 385.22,-385.22 z"
         style="fill:none;stroke:#627230;stroke-width:10;stroke-linecap:butt;stroke-linejoin:miter;stroke-miterlimit:10;stroke-dasharray:none;stroke-opacity:1"
         id="path276" /><path
         d="m 5910.84,6296.05 385.21,385.22 385.22,-385.22 -385.22,-385.21 z"
         style="fill:#b0cc79;fill-opacity:1;fill-rule:nonzero;stroke:none"
         id="path278" /><path
         d="m 5910.84,6296.05 385.21,385.22 385.22,-385.22 -385.22,-385.21 z"
         style="fill:none;stroke:#627230;stroke-width:10;stroke-linecap:butt;stroke-linejoin:miter;stroke-miterlimit:10;stroke-dasharray:none;stroke-opacity:1"
         id="path280" /><path
         d="m 5140.41,5525.63 385.21,385.21 385.22,-385.21 -385.22,-385.22 z"
         style="fill:#b0cc79;fill-opacity:1;fill-rule:nonzero;stroke:none"
         id="path282" /><path
         d="m 5140.41,5525.63 385.21,385.21 385.22,-385.21 -385.22,-385.22 z"
         style="fill:none;stroke:#627230;stroke-width:10;stroke-linecap:butt;stroke-linejoin:miter;stroke-miterlimit:10;stroke-dasharray:none;stroke-opacity:1"
         id="path284" /><path
         d="m 903.047,5910.84 -385.211,385.21 385.211,385.22 385.213,-385.22 z"
         style="fill:#b0cc79;fill-opacity:1;fill-rule:nonzero;stroke:none"
         id="path286" /><path
         d="m 903.047,5910.84 -385.211,385.21 385.211,385.22 385.213,-385.22 z"
         style="fill:none;stroke:#627230;stroke-width:10;stroke-linecap:butt;stroke-linejoin:miter;stroke-miterlimit:10;stroke-dasharray:none;stroke-opacity:1"
         id="path288" /><path
         d="m 1673.48,5910.84 -385.21,385.21 385.21,385.22 385.21,-385.22 z"
         style="fill:#b0cc79;fill-opacity:1;fill-rule:nonzero;stroke:none"
         id="path290" /><path
         d="m 1673.48,5910.84 -385.21,385.21 385.21,385.22 385.21,-385.22 z"
         style="fill:none;stroke:#627230;stroke-width:10;stroke-linecap:butt;stroke-linejoin:miter;stroke-miterlimit:10;stroke-dasharray:none;stroke-opacity:1"
         id="path292" /><path
         d="m 903.047,5140.41 -385.211,385.21 385.211,385.22 385.213,-385.22 z"
         style="fill:#b0cc79;fill-opacity:1;fill-rule:nonzero;stroke:none"
         id="path294" /><path
         d="m 903.047,5140.41 -385.211,385.21 385.211,385.22 385.213,-385.22 z"
         style="fill:none;stroke:#627230;stroke-width:10;stroke-linecap:butt;stroke-linejoin:miter;stroke-miterlimit:10;stroke-dasharray:none;stroke-opacity:1"
         id="path296" /><path
         d="m 2443.91,5910.84 -385.21,385.21 385.21,385.22 385.21,-385.22 z"
         style="fill:#b0cc79;fill-opacity:1;fill-rule:nonzero;stroke:none"
         id="path298" /><path
         d="m 2443.91,5910.84 -385.21,385.21 385.21,385.22 385.21,-385.22 z"
         style="fill:none;stroke:#627230;stroke-width:10;stroke-linecap:butt;stroke-linejoin:miter;stroke-miterlimit:10;stroke-dasharray:none;stroke-opacity:1"
         id="path300" /><path
         d="m 903.047,4369.98 -385.211,385.21 385.211,385.22 385.213,-385.22 z"
         style="fill:#b0cc79;fill-opacity:1;fill-rule:nonzero;stroke:none"
         id="path302" /><path
         d="m 903.047,4369.98 -385.211,385.21 385.211,385.22 385.213,-385.22 z"
         style="fill:none;stroke:#627230;stroke-width:10;stroke-linecap:butt;stroke-linejoin:miter;stroke-miterlimit:10;stroke-dasharray:none;stroke-opacity:1"
         id="path304" /><path
         d="m 3214.34,5910.84 -385.21,385.21 385.21,385.22 385.21,-385.22 z"
         style="fill:#b0cc79;fill-opacity:1;fill-rule:nonzero;stroke:none"
         id="path306" /><path
         d="m 3214.34,5910.84 -385.21,385.21 385.21,385.22 385.21,-385.22 z"
         style="fill:none;stroke:#627230;stroke-width:10;stroke-linecap:butt;stroke-linejoin:miter;stroke-miterlimit:10;stroke-dasharray:none;stroke-opacity:1"
         id="path308" /><path
         d="m 903.047,3599.55 -385.211,385.21 385.211,385.22 385.213,-385.22 z"
         style="fill:#b0cc79;fill-opacity:1;fill-rule:nonzero;stroke:none"
         id="path310" /><path
         d="m 903.047,3599.55 -385.211,385.21 385.211,385.22 385.213,-385.22 z"
         style="fill:none;stroke:#627230;stroke-width:10;stroke-linecap:butt;stroke-linejoin:miter;stroke-miterlimit:10;stroke-dasharray:none;stroke-opacity:1"
         id="path312" /><path
         d="m 2443.91,5140.41 -385.21,385.21 385.21,385.22 385.21,-385.22 z"
         style="fill:#b0cc79;fill-opacity:1;fill-rule:nonzero;stroke:none"
         id="path314" /><path
         d="m 2443.91,5140.41 -385.21,385.21 385.21,385.22 385.21,-385.22 z"
         style="fill:none;stroke:#627230;stroke-width:10;stroke-linecap:butt;stroke-linejoin:miter;stroke-miterlimit:10;stroke-dasharray:none;stroke-opacity:1"
         id="path316" /><path
         d="m 1673.48,4369.98 -385.21,385.21 385.21,385.22 385.21,-385.22 z"
         style="fill:#b0cc79;fill-opacity:1;fill-rule:nonzero;stroke:none"
         id="path318" /><path
         d="m 1673.48,4369.98 -385.21,385.21 385.21,385.22 385.21,-385.22 z"
         style="fill:none;stroke:#627230;stroke-width:10;stroke-linecap:butt;stroke-linejoin:miter;stroke-miterlimit:10;stroke-dasharray:none;stroke-opacity:1"
         id="path320" /><path
         d="m 1673.48,5140.41 -385.21,385.21 385.21,385.22 385.21,-385.22 z"
         style="fill:#b0cc79;fill-opacity:1;fill-rule:nonzero;stroke:none"
         id="path322" /><path
         d="m 1673.48,5140.41 -385.21,385.21 385.21,385.22 385.21,-385.22 z"
         style="fill:none;stroke:#627230;stroke-width:10;stroke-linecap:butt;stroke-linejoin:miter;stroke-miterlimit:10;stroke-dasharray:none;stroke-opacity:1"
         id="path324" /><path
         d="m 903.047,2829.12 -385.211,385.21 385.211,385.22 385.213,-385.22 z"
         style="fill:#b0cc79;fill-opacity:1;fill-rule:nonzero;stroke:none"
         id="path326" /><path
         d="m 903.047,2829.12 -385.211,385.21 385.211,385.22 385.213,-385.22 z"
         style="fill:none;stroke:#627230;stroke-width:10;stroke-linecap:butt;stroke-linejoin:miter;stroke-miterlimit:10;stroke-dasharray:none;stroke-opacity:1"
         id="path328" /><path
         d="M 903.047,2058.69 517.836,2443.9 903.047,2829.12 1288.26,2443.9 Z"
         style="fill:#b0cc79;fill-opacity:1;fill-rule:nonzero;stroke:none"
         id="path330" /><path
         d="M 903.047,2058.69 517.836,2443.9 903.047,2829.12 1288.26,2443.9 Z"
         style="fill:none;stroke:#627230;stroke-width:10;stroke-linecap:butt;stroke-linejoin:miter;stroke-miterlimit:10;stroke-dasharray:none;stroke-opacity:1"
         id="path332" /><path
         d="m 903.047,1288.26 -385.211,385.21 385.211,385.22 385.213,-385.22 z"
         style="fill:#b0cc79;fill-opacity:1;fill-rule:nonzero;stroke:none"
         id="path334" /><path
         d="m 903.047,1288.26 -385.211,385.21 385.211,385.22 385.213,-385.22 z"
         style="fill:none;stroke:#627230;stroke-width:10;stroke-linecap:butt;stroke-linejoin:miter;stroke-miterlimit:10;stroke-dasharray:none;stroke-opacity:1"
         id="path336" /><path
         d="m 1673.48,517.832 -385.21,385.211 385.21,385.217 385.21,-385.217 z"
         style="fill:#b0cc79;fill-opacity:1;fill-rule:nonzero;stroke:none"
         id="path338" /><path
         d="m 1673.48,517.832 -385.21,385.211 385.21,385.217 385.21,-385.217 z"
         style="fill:none;stroke:#627230;stroke-width:10;stroke-linecap:butt;stroke-linejoin:miter;stroke-miterlimit:10;stroke-dasharray:none;stroke-opacity:1"
         id="path340" /><path
         d="M 2443.91,517.832 2058.7,903.043 2443.91,1288.26 2829.12,903.043 Z"
         style="fill:#b0cc79;fill-opacity:1;fill-rule:nonzero;stroke:none"
         id="path342" /><path
         d="M 2443.91,517.832 2058.7,903.043 2443.91,1288.26 2829.12,903.043 Z"
         style="fill:none;stroke:#627230;stroke-width:10;stroke-linecap:butt;stroke-linejoin:miter;stroke-miterlimit:10;stroke-dasharray:none;stroke-opacity:1"
         id="path344" /><path
         d="m 1673.48,2058.69 -385.21,385.21 385.21,385.22 385.21,-385.22 z"
         style="fill:#b0cc79;fill-opacity:1;fill-rule:nonzero;stroke:none"
         id="path346" /><path
         d="m 1673.48,2058.69 -385.21,385.21 385.21,385.22 385.21,-385.22 z"
         style="fill:none;stroke:#627230;stroke-width:10;stroke-linecap:butt;stroke-linejoin:miter;stroke-miterlimit:10;stroke-dasharray:none;stroke-opacity:1"
         id="path348" /><path
         d="m 2443.91,1288.26 -385.21,385.21 385.21,385.22 385.21,-385.22 z"
         style="fill:#b0cc79;fill-opacity:1;fill-rule:nonzero;stroke:none"
         id="path350" /><path
         d="m 2443.91,1288.26 -385.21,385.21 385.21,385.22 385.21,-385.22 z"
         style="fill:none;stroke:#627230;stroke-width:10;stroke-linecap:butt;stroke-linejoin:miter;stroke-miterlimit:10;stroke-dasharray:none;stroke-opacity:1"
         id="path352" /><path
         d="m 3214.34,517.832 -385.21,385.211 385.21,385.217 385.21,-385.217 z"
         style="fill:#b0cc79;fill-opacity:1;fill-rule:nonzero;stroke:none"
         id="path354" /><path
         d="m 3214.34,517.832 -385.21,385.211 385.21,385.217 385.21,-385.217 z"
         style="fill:none;stroke:#627230;stroke-width:10;stroke-linecap:butt;stroke-linejoin:miter;stroke-miterlimit:10;stroke-dasharray:none;stroke-opacity:1"
         id="path356" /><path
         d="m 1288.26,1673.48 385.21,385.21 385.22,-385.21 -385.22,-385.21 z"
         style="fill:#b0cc79;fill-opacity:1;fill-rule:nonzero;stroke:none"
         id="path358" /><path
         d="m 1288.26,1673.48 385.21,385.21 385.22,-385.21 -385.22,-385.21 z"
         style="fill:none;stroke:#627230;stroke-width:10;stroke-linecap:butt;stroke-linejoin:miter;stroke-miterlimit:10;stroke-dasharray:none;stroke-opacity:1"
         id="path360" /><path
         d="M 517.832,903.047 903.043,1288.26 1288.26,903.047 903.043,517.836 Z"
         style="fill:#b0cc79;fill-opacity:1;fill-rule:nonzero;stroke:none"
         id="path362" /><path
         d="M 517.832,903.047 903.043,1288.26 1288.26,903.047 903.043,517.836 Z"
         style="fill:none;stroke:#627230;stroke-width:10;stroke-linecap:butt;stroke-linejoin:miter;stroke-miterlimit:10;stroke-dasharray:none;stroke-opacity:1"
         id="path364" /><path
         d="m 3235.55,3599.55 364,364 364.01,-364 -364.01,-364 z"
         style="fill:#edcc43;fill-opacity:1;fill-rule:nonzero;stroke:none"
         id="path366" /><path
         d="m 3599.55,3984.77 -385.21,-385.22 385.21,-385.21 385.21,385.21 z m 0,-42.43 342.78,-342.79 -342.78,-342.79 -342.79,342.79"
         style="fill:#4d4d4d;fill-opacity:1;fill-rule:nonzero;stroke:none"
         id="path368" /><path
         d="M 3600.45,4755.2 2444.81,3599.55 3600.45,2443.91 4756.09,3599.55 Z m 0,-99 L 4657.1,3599.55 3600.45,2542.91 2543.8,3599.55"
         style="fill:#ef0330;fill-opacity:1;fill-rule:nonzero;stroke:none"
         id="path370" /><path
         d="M 3600.45,5525.63 1674.38,3599.55 3600.45,1673.48 5526.52,3599.55 Z m 0,-98.99 L 5427.53,3599.55 3600.45,1772.48 1773.37,3599.55"
         style="fill:#7a3915;fill-opacity:1;fill-rule:nonzero;stroke:none"
         id="path372" /><path
         d="M 3600.45,6296.05 904.848,3600.45 3600.45,904.844 6296.06,3600.45 Z m 0,-98.98 L 6197.06,3600.45 3600.45,1003.84 1003.84,3600.45"
         style="fill:#1b1464;fill-opacity:1;fill-rule:nonzero;stroke:none"
         id="path374" /><path
         d="m 6681.27,3984.77 -2696.5,2696.5"
         style="fill:none;stroke:#3e1577;stroke-width:30;stroke-linecap:butt;stroke-linejoin:round;stroke-miterlimit:10;stroke-dasharray:none;stroke-opacity:1"
         id="path376" /><path
         d="m 3983.87,518.73 2696.5,2696.5"
         style="fill:none;stroke:#3e1577;stroke-width:30;stroke-linecap:butt;stroke-linejoin:round;stroke-miterlimit:10;stroke-dasharray:none;stroke-opacity:1"
         id="path378" /><path
         d="M 519.633,3216.13 3216.13,519.633"
         style="fill:none;stroke:#3e1577;stroke-width:30;stroke-linecap:butt;stroke-linejoin:round;stroke-miterlimit:10;stroke-dasharray:none;stroke-opacity:1"
         id="path380" /><path
         d="M 3215.23,6680.37 518.734,3983.87"
         style="fill:none;stroke:#3e1577;stroke-width:30;stroke-linecap:butt;stroke-linejoin:round;stroke-miterlimit:10;stroke-dasharray:none;stroke-opacity:1"
         id="path382" /><path
         d="M 2444.8,6680.37 518.734,4754.3"
         style="fill:none;stroke:#153d77;stroke-width:30;stroke-linecap:butt;stroke-linejoin:round;stroke-miterlimit:10;stroke-dasharray:none;stroke-opacity:1"
         id="path384" /><path
         d="M 6681.27,4755.2 4755.2,6681.27"
         style="fill:none;stroke:#153d77;stroke-width:30;stroke-linecap:butt;stroke-linejoin:round;stroke-miterlimit:10;stroke-dasharray:none;stroke-opacity:1"
         id="path386" /><path
         d="M 4754.3,518.73 6680.37,2444.8"
         style="fill:none;stroke:#153d77;stroke-width:30;stroke-linecap:butt;stroke-linejoin:round;stroke-miterlimit:10;stroke-dasharray:none;stroke-opacity:1"
         id="path388" /><path
         d="M 519.633,2445.7 2445.7,519.633"
         style="fill:none;stroke:#153d77;stroke-width:30;stroke-linecap:butt;stroke-linejoin:round;stroke-miterlimit:10;stroke-dasharray:none;stroke-opacity:1"
         id="path390" /><path
         d="M 1674.36,6680.38 518.727,5524.73"
         style="fill:none;stroke:#16726f;stroke-width:30;stroke-linecap:butt;stroke-linejoin:round;stroke-miterlimit:10;stroke-dasharray:none;stroke-opacity:1"
         id="path392" /><path
         d="M 6681.28,5525.64 5525.64,6681.27"
         style="fill:none;stroke:#16726f;stroke-width:30;stroke-linecap:butt;stroke-linejoin:round;stroke-miterlimit:10;stroke-dasharray:none;stroke-opacity:1"
         id="path394" /><path
         d="M 5524.73,518.723 6680.38,1674.36"
         style="fill:none;stroke:#16726f;stroke-width:30;stroke-linecap:butt;stroke-linejoin:round;stroke-miterlimit:10;stroke-dasharray:none;stroke-opacity:1"
         id="path396" /><path
         d="M 519.625,1675.27 1675.27,519.625"
         style="fill:none;stroke:#16726f;stroke-width:30;stroke-linecap:butt;stroke-linejoin:round;stroke-miterlimit:10;stroke-dasharray:none;stroke-opacity:1"
         id="path398" /></g></g></svg>
